<svg width="512" height="512" viewBox="0 0 512 512" fill="none" xmlns="http://www.w3.org/2000/svg">
<g clip-path="url(#clip0_101_35)">
<path d="M205.397 423.196H289.016V512.336H205.397V423.196Z" fill="url(#paint0_linear_101_35)"/>
<path d="M205.397 423.196H289.016V512.336H205.397V423.196Z" fill="url(#paint1_linear_101_35)"/>
<path d="M205.397 423.196H289.016V512.336H205.397V423.196Z" fill="url(#paint2_radial_101_35)"/>
<g filter="url(#filter0_d_101_35)">
<path d="M41 236.501C41 210.27 51.4202 185.113 69.9684 166.565C88.5165 148.017 113.673 137.596 139.904 137.596H372.096C398.327 137.596 423.483 148.017 442.031 166.565C460.58 185.113 471 210.27 471 236.501V405.231C471 410.001 469.105 414.575 465.733 417.947C462.36 421.319 457.786 423.214 453.017 423.214H58.9826C54.2133 423.214 49.6394 421.319 46.267 417.947C42.8946 414.575 41 410.001 41 405.231V236.501Z" fill="url(#paint3_linear_101_35)"/>
<path d="M41 236.501C41 210.27 51.4202 185.113 69.9684 166.565C88.5165 148.017 113.673 137.596 139.904 137.596H372.096C398.327 137.596 423.483 148.017 442.031 166.565C460.58 185.113 471 210.27 471 236.501V405.231C471 410.001 469.105 414.575 465.733 417.947C462.36 421.319 457.786 423.214 453.017 423.214H58.9826C54.2133 423.214 49.6394 421.319 46.267 417.947C42.8946 414.575 41 410.001 41 405.231V236.501Z" fill="url(#paint4_radial_101_35)"/>
<path d="M41 236.501C41 210.27 51.4202 185.113 69.9684 166.565C88.5165 148.017 113.673 137.596 139.904 137.596H372.096C398.327 137.596 423.483 148.017 442.031 166.565C460.58 185.113 471 210.27 471 236.501V405.231C471 410.001 469.105 414.575 465.733 417.947C462.36 421.319 457.786 423.214 453.017 423.214H58.9826C54.2133 423.214 49.6394 421.319 46.267 417.947C42.8946 414.575 41 410.001 41 405.231V236.501Z" fill="url(#paint5_radial_101_35)"/>
<path d="M41 236.501C41 210.27 51.4202 185.113 69.9684 166.565C88.5165 148.017 113.673 137.596 139.904 137.596H372.096C398.327 137.596 423.483 148.017 442.031 166.565C460.58 185.113 471 210.27 471 236.501V405.231C471 410.001 469.105 414.575 465.733 417.947C462.36 421.319 457.786 423.214 453.017 423.214H58.9826C54.2133 423.214 49.6394 421.319 46.267 417.947C42.8946 414.575 41 410.001 41 405.231V236.501Z" fill="url(#paint6_radial_101_35)"/>
</g>
<g filter="url(#filter1_dd_101_35)">
<path d="M315.163 31.3551H411.909C415.724 31.3551 419.384 32.8708 422.081 35.5687C424.779 38.2666 426.295 41.9258 426.295 45.7412V101.847C426.295 105.662 424.779 109.321 422.081 112.019C419.384 114.717 415.724 116.233 411.909 116.233H315.163V31.3551Z" fill="#F64092"/>
</g>
<g filter="url(#filter2_f_101_35)">
<path d="M318.256 36.3542H413.797C415.524 36.4442 419.372 37.9008 420.954 42.9539" stroke="#F667A3" stroke-width="0.15" stroke-linecap="round"/>
</g>
<g filter="url(#filter3_d_101_35)">
<path d="M285.383 34.0525C285.542 28.6805 287.787 23.5816 291.643 19.8378C295.499 16.0941 300.662 14 306.036 14C311.411 14 316.574 16.0941 320.429 19.8378C324.285 23.5816 326.531 28.6805 326.689 34.0525V206.973H285.383V34.0525Z" fill="url(#paint7_linear_101_35)"/>
<path d="M285.383 34.0525C285.542 28.6805 287.787 23.5816 291.643 19.8378C295.499 16.0941 300.662 14 306.036 14C311.411 14 316.574 16.0941 320.429 19.8378C324.285 23.5816 326.531 28.6805 326.689 34.0525V206.973H285.383V34.0525Z" fill="url(#paint8_linear_101_35)"/>
<path d="M285.383 34.0525C285.542 28.6805 287.787 23.5816 291.643 19.8378C295.499 16.0941 300.662 14 306.036 14C311.411 14 316.574 16.0941 320.429 19.8378C324.285 23.5816 326.531 28.6805 326.689 34.0525V206.973H285.383V34.0525Z" fill="url(#paint9_radial_101_35)"/>
</g>
<g filter="url(#filter4_f_101_35)">
<path d="M319.659 32.4161C319.659 29.3572 317.179 26.8774 314.12 26.8774C311.061 26.8774 308.582 29.3572 308.582 32.4161V198.503C308.582 201.562 311.061 204.042 314.12 204.042C317.179 204.042 319.659 201.562 319.659 198.503V32.4161Z" fill="#C0B9CA"/>
</g>
<path d="M285.384 189.566C274.037 196.723 269.505 210.875 269.505 227.168C269.505 250.707 281.517 269.786 305.038 269.786C316.342 269.786 327.182 265.296 335.175 257.304C343.167 249.311 347.657 238.471 347.657 227.168C347.657 210.875 340.194 196.723 326.761 189.566H285.384Z" fill="url(#paint10_radial_101_35)"/>
<path d="M285.384 189.566C274.037 196.723 269.505 210.875 269.505 227.168C269.505 250.707 281.517 269.786 305.038 269.786C316.342 269.786 327.182 265.296 335.175 257.304C343.167 249.311 347.657 238.471 347.657 227.168C347.657 210.875 340.194 196.723 326.761 189.566H285.384Z" fill="url(#paint11_radial_101_35)"/>
<path d="M285.384 189.566C274.037 196.723 269.505 210.875 269.505 227.168C269.505 250.707 281.517 269.786 305.038 269.786C316.342 269.786 327.182 265.296 335.175 257.304C343.167 249.311 347.657 238.471 347.657 227.168C347.657 210.875 340.194 196.723 326.761 189.566H285.384Z" fill="url(#paint12_radial_101_35)"/>
<g filter="url(#filter5_f_101_35)">
<path d="M63.6403 417.72H201.207C203.398 417.701 205.563 417.251 207.58 416.395C209.596 415.538 211.424 414.293 212.959 412.73C214.494 411.167 215.705 409.316 216.525 407.284C217.344 405.253 217.754 403.079 217.733 400.889V243.019C217.733 193.819 181.426 150.661 132.424 150.661C86.1725 147.73 47.1143 185.097 47.1143 243.019V400.889C47.1143 410.186 54.5051 417.72 63.6403 417.72Z" fill="url(#paint13_linear_101_35)"/>
<path d="M63.64 419.968H201.207C211.601 419.968 219.981 411.39 219.981 400.889V243.019C219.981 192.848 182.937 148.449 132.495 148.431C84.7696 145.428 44.8662 184.072 44.8662 243.019V400.889C44.8662 411.39 53.2281 419.968 63.64 419.968Z" stroke="url(#paint14_radial_101_35)" stroke-width="0.25"/>
</g>
<path d="M94.5215 261.981C94.5215 268.051 91.6705 272.978 88.1576 272.978C84.6447 272.978 81.7935 268.051 81.7935 261.981C81.7935 255.91 84.6447 250.983 88.1576 250.983C91.6705 250.983 94.5215 255.91 94.5215 261.981Z" stroke="#1345B7" stroke-width="14.974" stroke-linecap="round" stroke-linejoin="round"/>
<path d="M183.618 261.981C183.618 268.051 180.767 272.978 177.254 272.978C173.741 272.978 170.89 268.051 170.89 261.981C170.89 255.91 173.741 250.983 177.254 250.983C180.767 250.983 183.618 255.91 183.618 261.981Z" stroke="#1345B7" stroke-width="14.974" stroke-linecap="round" stroke-linejoin="round"/>
<path d="M186.423 340.896C179.331 347.023 170.913 351.884 161.647 355.2C152.382 358.516 142.451 360.223 132.422 360.223C122.394 360.223 112.463 358.516 103.198 355.2C93.9321 351.884 85.5133 347.023 78.4219 340.896" stroke="#1345B7" stroke-width="14.974" stroke-linecap="round" stroke-linejoin="round"/>
</g>
<defs>
<filter id="filter0_d_101_35" x="40.65" y="136.446" width="431.5" height="287.118" filterUnits="userSpaceOnUse" color-interpolation-filters="sRGB">
<feFlood flood-opacity="0" result="BackgroundImageFix"/>
<feColorMatrix in="SourceAlpha" type="matrix" values="0 0 0 0 0 0 0 0 0 0 0 0 0 0 0 0 0 0 127 0" result="hardAlpha"/>
<feOffset dx="0.4" dy="-0.4"/>
<feGaussianBlur stdDeviation="0.375"/>
<feComposite in2="hardAlpha" operator="out"/>
<feColorMatrix type="matrix" values="0 0 0 0 0.262745 0 0 0 0 0.356863 0 0 0 0 1 0 0 0 1 0"/>
<feBlend mode="normal" in2="BackgroundImageFix" result="effect1_dropShadow_101_35"/>
<feBlend mode="normal" in="SourceGraphic" in2="effect1_dropShadow_101_35" result="shape"/>
</filter>
<filter id="filter1_dd_101_35" x="315.163" y="30.6051" width="112.132" height="86.2778" filterUnits="userSpaceOnUse" color-interpolation-filters="sRGB">
<feFlood flood-opacity="0" result="BackgroundImageFix"/>
<feColorMatrix in="SourceAlpha" type="matrix" values="0 0 0 0 0 0 0 0 0 0 0 0 0 0 0 0 0 0 127 0" result="hardAlpha"/>
<feOffset dx="0.5" dy="-0.25"/>
<feGaussianBlur stdDeviation="0.25"/>
<feComposite in2="hardAlpha" operator="out"/>
<feColorMatrix type="matrix" values="0 0 0 0 0.847059 0 0 0 0 0.14902 0 0 0 0 0.501961 0 0 0 1 0"/>
<feBlend mode="normal" in2="BackgroundImageFix" result="effect1_dropShadow_101_35"/>
<feColorMatrix in="SourceAlpha" type="matrix" values="0 0 0 0 0 0 0 0 0 0 0 0 0 0 0 0 0 0 127 0" result="hardAlpha"/>
<feOffset dx="0.5" dy="0.15"/>
<feGaussianBlur stdDeviation="0.25"/>
<feComposite in2="hardAlpha" operator="out"/>
<feColorMatrix type="matrix" values="0 0 0 0 0.847059 0 0 0 0 0.14902 0 0 0 0 0.501961 0 0 0 1 0"/>
<feBlend mode="normal" in2="effect1_dropShadow_101_35" result="effect2_dropShadow_101_35"/>
<feBlend mode="normal" in="SourceGraphic" in2="effect2_dropShadow_101_35" result="shape"/>
</filter>
<filter id="filter2_f_101_35" x="318.031" y="36.1293" width="103.149" height="7.04963" filterUnits="userSpaceOnUse" color-interpolation-filters="sRGB">
<feFlood flood-opacity="0" result="BackgroundImageFix"/>
<feBlend mode="normal" in="SourceGraphic" in2="BackgroundImageFix" result="shape"/>
<feGaussianBlur stdDeviation="0.075" result="effect1_foregroundBlur_101_35"/>
</filter>
<filter id="filter3_d_101_35" x="284.833" y="12.85" width="43.0062" height="194.673" filterUnits="userSpaceOnUse" color-interpolation-filters="sRGB">
<feFlood flood-opacity="0" result="BackgroundImageFix"/>
<feColorMatrix in="SourceAlpha" type="matrix" values="0 0 0 0 0 0 0 0 0 0 0 0 0 0 0 0 0 0 127 0" result="hardAlpha"/>
<feOffset dx="0.3" dy="-0.3"/>
<feGaussianBlur stdDeviation="0.425"/>
<feComposite in2="hardAlpha" operator="out"/>
<feColorMatrix type="matrix" values="0 0 0 0 0.439216 0 0 0 0 0.427451 0 0 0 0 0.466667 0 0 0 1 0"/>
<feBlend mode="normal" in2="BackgroundImageFix" result="effect1_dropShadow_101_35"/>
<feBlend mode="normal" in="SourceGraphic" in2="effect1_dropShadow_101_35" result="shape"/>
</filter>
<filter id="filter4_f_101_35" x="308.082" y="26.3774" width="12.0771" height="178.165" filterUnits="userSpaceOnUse" color-interpolation-filters="sRGB">
<feFlood flood-opacity="0" result="BackgroundImageFix"/>
<feBlend mode="normal" in="SourceGraphic" in2="BackgroundImageFix" result="shape"/>
<feGaussianBlur stdDeviation="0.25" result="effect1_foregroundBlur_101_35"/>
</filter>
<filter id="filter5_f_101_35" x="44.2412" y="147.642" width="176.365" height="272.951" filterUnits="userSpaceOnUse" color-interpolation-filters="sRGB">
<feFlood flood-opacity="0" result="BackgroundImageFix"/>
<feBlend mode="normal" in="SourceGraphic" in2="BackgroundImageFix" result="shape"/>
<feGaussianBlur stdDeviation="0.25" result="effect1_foregroundBlur_101_35"/>
</filter>
<linearGradient id="paint0_linear_101_35" x1="270.782" y1="512.336" x2="205.397" y2="512.336" gradientUnits="userSpaceOnUse">
<stop stop-color="#8F616C"/>
<stop offset="0.42" stop-color="#7D4261"/>
<stop offset="0.774" stop-color="#5E3A43"/>
</linearGradient>
<linearGradient id="paint1_linear_101_35" x1="293.817" y1="512.336" x2="280.33" y2="512.336" gradientUnits="userSpaceOnUse">
<stop stop-color="#855A5D"/>
<stop offset="1" stop-color="#855A5D" stop-opacity="0"/>
</linearGradient>
<radialGradient id="paint2_radial_101_35" cx="0" cy="0" r="1" gradientUnits="userSpaceOnUse" gradientTransform="translate(247.207 512.336) rotate(-90) scale(89.1287 101.11)">
<stop offset="0.772" stop-color="#632F53" stop-opacity="0"/>
<stop offset="1" stop-color="#5A3A46"/>
</radialGradient>
<linearGradient id="paint3_linear_101_35" x1="337.371" y1="423.214" x2="337.371" y2="177.194" gradientUnits="userSpaceOnUse">
<stop offset="0.743" stop-color="#4396FF"/>
<stop offset="1" stop-color="#59A1FF"/>
</linearGradient>
<radialGradient id="paint4_radial_101_35" cx="0" cy="0" r="1" gradientUnits="userSpaceOnUse" gradientTransform="translate(256 124.379) rotate(90) scale(73.0543 338.976)">
<stop offset="0.062" stop-color="#4D70A0"/>
<stop offset="1" stop-color="#3D93EB" stop-opacity="0"/>
</radialGradient>
<radialGradient id="paint5_radial_101_35" cx="0" cy="0" r="1" gradientUnits="userSpaceOnUse" gradientTransform="translate(300.848 232.275) rotate(90) scale(59.5673 47.4852)">
<stop offset="0.613" stop-color="#2356E3"/>
<stop offset="1" stop-color="#4398FF" stop-opacity="0"/>
</radialGradient>
<radialGradient id="paint6_radial_101_35" cx="0" cy="0" r="1" gradientUnits="userSpaceOnUse" gradientTransform="translate(286.809 178.872) rotate(-127.25) scale(67.7733 29.8739)">
<stop offset="0.112" stop-color="#114CA0"/>
<stop offset="1" stop-color="#2476C7" stop-opacity="0"/>
</radialGradient>
<linearGradient id="paint7_linear_101_35" x1="293.817" y1="129.99" x2="326.689" y2="129.99" gradientUnits="userSpaceOnUse">
<stop stop-color="#9A85B2"/>
<stop offset="1" stop-color="#B9AFC7"/>
</linearGradient>
<linearGradient id="paint8_linear_101_35" x1="306.027" y1="13.3905" x2="306.027" y2="44.0149" gradientUnits="userSpaceOnUse">
<stop stop-color="#8C8893"/>
<stop offset="1" stop-color="#8C8893" stop-opacity="0"/>
</linearGradient>
<radialGradient id="paint9_radial_101_35" cx="0" cy="0" r="1" gradientUnits="userSpaceOnUse" gradientTransform="translate(317.986 189.566) rotate(-90) scale(3.93369 29.5028)">
<stop offset="0.071" stop-color="#C3BFCA"/>
<stop offset="1" stop-color="#C3BFCA" stop-opacity="0"/>
</radialGradient>
<radialGradient id="paint10_radial_101_35" cx="0" cy="0" r="1" gradientUnits="userSpaceOnUse" gradientTransform="translate(300.003 265.992) rotate(-90) scale(60.1293 55.1415)">
<stop stop-color="#9F71CD"/>
<stop offset="1" stop-color="#9994A1"/>
</radialGradient>
<radialGradient id="paint11_radial_101_35" cx="0" cy="0" r="1" gradientUnits="userSpaceOnUse" gradientTransform="translate(336.526 222.151) rotate(169.651) scale(65.6937 78.5334)">
<stop offset="0.548" stop-color="#73679F" stop-opacity="0"/>
<stop offset="1" stop-color="#60569A"/>
</radialGradient>
<radialGradient id="paint12_radial_101_35" cx="0" cy="0" r="1" gradientUnits="userSpaceOnUse" gradientTransform="translate(329.495 208.951) rotate(-31.195) scale(35.8036 26.6591)">
<stop offset="0.079" stop-color="#CBC4D6"/>
<stop offset="1" stop-color="#AFABB5" stop-opacity="0"/>
</radialGradient>
<linearGradient id="paint13_linear_101_35" x1="132.424" y1="150.661" x2="132.424" y2="417.72" gradientUnits="userSpaceOnUse">
<stop stop-color="#3A7DF2"/>
<stop offset="1" stop-color="#3D7DFF"/>
</linearGradient>
<radialGradient id="paint14_radial_101_35" cx="0" cy="0" r="1" gradientUnits="userSpaceOnUse" gradientTransform="translate(246.047 194.18) rotate(125.738) scale(169.333 56.9599)">
<stop offset="0.263" stop-color="#5C9DFF"/>
<stop offset="1" stop-color="#5C9DFF" stop-opacity="0"/>
</radialGradient>
<clipPath id="clip0_101_35">
<rect width="512" height="512" fill="white"/>
</clipPath>
</defs>
</svg>
